<?xml version="1.0" encoding="iso-8859-1"?>
<!-- Generator: Adobe Illustrator 16.0.0, SVG Export Plug-In . SVG Version: 6.00 Build 0)  -->
<!DOCTYPE svg PUBLIC "-//W3C//DTD SVG 1.1//EN" "http://www.w3.org/Graphics/SVG/1.1/DTD/svg11.dtd">
<svg version="1.1" id="Capa_1" xmlns="http://www.w3.org/2000/svg" xmlns:xlink="http://www.w3.org/1999/xlink" x="0px" y="0px"
	 width="32px" height="32px" viewBox="0 0 32 32" style="enable-background:new 0 0 32 32;" xml:space="preserve">
<g>
	<g fill="#FFFFFF" stroke="none">
		<path d="M27.955,19.752c-0.087,0.078-7.049,6.217-14.847,6.047c0.944-1.231,1.53-2.756,1.53-4.428
			c0-4.035-3.283-7.317-7.319-7.317C3.283,14.053,0,17.336,0,21.372c0,3.6,2.614,6.582,6.04,7.189c2.52,1.15,5.032,1.632,7.44,1.632
			c9.279,0,16.985-6.836,17.392-7.204c0.894-0.807,0.962-2.181,0.16-3.072C30.225,19.02,28.85,18.95,27.955,19.752z M7.319,24.334
			c-1.634,0-2.962-1.326-2.962-2.963c0-1.633,1.328-2.961,2.962-2.961c1.634,0,2.962,1.328,2.962,2.961
			C10.281,23.007,8.953,24.334,7.319,24.334z"/>
		<path d="M4.045,12.247c0.087-0.077,7.049-6.215,14.848-6.045c-0.943,1.231-1.531,2.755-1.531,4.426
			c0,4.036,3.283,7.318,7.32,7.318c4.035,0,7.318-3.282,7.318-7.318c0-3.598-2.615-6.58-6.04-7.188
			c-2.521-1.153-5.032-1.633-7.44-1.633c-9.279,0-16.985,6.836-17.392,7.204c-0.895,0.807-0.962,2.181-0.16,3.071
			C1.776,12.981,3.151,13.051,4.045,12.247z M24.682,7.666c1.633,0,2.961,1.327,2.961,2.962c0,1.635-1.328,2.962-2.961,2.962
			c-1.635,0-2.963-1.327-2.963-2.962C21.719,8.994,23.047,7.666,24.682,7.666z"/>
	</g>
</g>
<g>
</g>
<g>
</g>
<g>
</g>
<g>
</g>
<g>
</g>
<g>
</g>
<g>
</g>
<g>
</g>
<g>
</g>
<g>
</g>
<g>
</g>
<g>
</g>
<g>
</g>
<g>
</g>
<g>
</g>
</svg>
